<svg enable-background="new 0 0 512 512" height="16" viewBox="0 0 512 512" width="512" xmlns="http://www.w3.org/2000/svg"><path d="m451.717 99.715-71.434-71.431c-15.554-15.556-46.283-28.284-68.283-28.284h-240c-22 0-40 18-40 40v432c0 22 18 40 40 40h368c22 0 40-18 40-40v-304c0-22-12.729-52.729-28.283-68.285zm-22.627 22.628c1.564 1.565 3.125 3.487 4.639 5.657h-81.729v-81.728c2.17 1.515 4.092 3.075 5.656 4.64zm18.91 349.657c0 4.336-3.664 8-8 8h-368c-4.336 0-8-3.664-8-8v-432c0-4.336 3.664-8 8-8h240c2.416 0 5.127.305 8 .852v127.148h127.148c.547 2.873.852 5.583.852 8z"/></svg>